<?xml version="1.0" encoding="UTF-8"?>
<!DOCTYPE svg PUBLIC "-//W3C//DTD SVG 1.1//EN" "http://www.w3.org/Graphics/SVG/1.1/DTD/svg11.dtd">
<svg xmlns="http://www.w3.org/2000/svg" version="1.1" width="143px" height="143px" style="shape-rendering:geometricPrecision; text-rendering:geometricPrecision; image-rendering:optimizeQuality; fill-rule:evenodd; clip-rule:evenodd" xmlns:xlink="http://www.w3.org/1999/xlink">
<g><path style="opacity:0.912" fill="#000000" d="M 21.5,-0.5 C 54.5,-0.5 87.5,-0.5 120.5,-0.5C 132.616,2.616 139.95,10.2827 142.5,22.5C 142.5,54.8333 142.5,87.1667 142.5,119.5C 139.833,132.167 132.167,139.833 119.5,142.5C 87.1667,142.5 54.8333,142.5 22.5,142.5C 10.2827,139.95 2.616,132.616 -0.5,120.5C -0.5,87.5 -0.5,54.5 -0.5,21.5C 2.5,9.83333 9.83333,2.5 21.5,-0.5 Z M 22.5,8.5 C 54.5017,8.33335 86.5017,8.50002 118.5,9C 126.667,10.5 131.5,15.3333 133,23.5C 133.667,55.1667 133.667,86.8333 133,118.5C 131.5,126.667 126.667,131.5 118.5,133C 86.8333,133.667 55.1667,133.667 23.5,133C 15.3333,131.5 10.5,126.667 9,118.5C 8.33333,86.5 8.33333,54.5 9,22.5C 11.0166,15.3185 15.5166,10.6518 22.5,8.5 Z"/></g>
<g><path style="opacity:0.937" fill="#000000" d="M 68.5,55.5 C 78.9432,55.4398 84.9432,60.6065 86.5,71C 82.8985,84.9679 74.5652,88.9679 61.5,83C 53.3528,74.3765 53.6862,66.0432 62.5,58C 64.6115,57.1553 66.6115,56.322 68.5,55.5 Z"/></g>
</svg>
