<?xml version="1.0" encoding="UTF-8"?>
<!DOCTYPE svg PUBLIC "-//W3C//DTD SVG 1.1//EN" "http://www.w3.org/Graphics/SVG/1.1/DTD/svg11.dtd">
<svg xmlns="http://www.w3.org/2000/svg" version="1.1" width="143px" height="143px" style="shape-rendering:geometricPrecision; text-rendering:geometricPrecision; image-rendering:optimizeQuality; fill-rule:evenodd; clip-rule:evenodd" xmlns:xlink="http://www.w3.org/1999/xlink">
<g><path style="opacity:0.912" fill="#000000" d="M 21.5,-0.5 C 54.5,-0.5 87.5,-0.5 120.5,-0.5C 132.616,2.616 139.95,10.2827 142.5,22.5C 142.5,54.8333 142.5,87.1667 142.5,119.5C 139.833,132.167 132.167,139.833 119.5,142.5C 87.1667,142.5 54.8333,142.5 22.5,142.5C 10.2827,139.95 2.616,132.616 -0.5,120.5C -0.5,87.5 -0.5,54.5 -0.5,21.5C 2.5,9.83333 9.83333,2.5 21.5,-0.5 Z M 23.5,8.5 C 55.1684,8.33335 86.8351,8.50002 118.5,9C 126.667,10.5 131.5,15.3333 133,23.5C 133.667,55.1667 133.667,86.8333 133,118.5C 131.5,126.667 126.667,131.5 118.5,133C 86.8333,133.667 55.1667,133.667 23.5,133C 15.3333,131.5 10.5,126.667 9,118.5C 8.33333,86.5 8.33333,54.5 9,22.5C 11.1236,14.8739 15.957,10.2072 23.5,8.5 Z"/></g>
<g><path style="opacity:0.94" fill="#000000" d="M 33.5,22.5 C 50.1747,22.8541 55.6747,30.8541 50,46.5C 41.6667,54.5 33.3333,54.5 25,46.5C 20.0422,35.5305 22.8755,27.5305 33.5,22.5 Z"/></g>
<g><path style="opacity:0.938" fill="#000000" d="M 100.5,22.5 C 113.983,21.8153 120.15,28.1486 119,41.5C 114.704,51.8915 107.204,55.0582 96.5,51C 89.0865,44.7451 87.5865,37.2451 92,28.5C 94.3218,25.6047 97.1552,23.6047 100.5,22.5 Z"/></g>
<g><path style="opacity:0.937" fill="#000000" d="M 68.5,55.5 C 78.9432,55.4398 84.9432,60.6065 86.5,71C 82.8985,84.9679 74.5652,88.9679 61.5,83C 53.3528,74.3765 53.6862,66.0432 62.5,58C 64.6115,57.1553 66.6115,56.322 68.5,55.5 Z"/></g>
<g><path style="opacity:0.939" fill="#000000" d="M 32.5,89.5 C 46.9829,88.4821 53.4829,95.1487 52,109.5C 46.099,120.013 37.9324,122.18 27.5,116C 19.6873,105.314 21.354,96.481 32.5,89.5 Z"/></g>
<g><path style="opacity:0.939" fill="#000000" d="M 99.5,89.5 C 117.542,89.587 123.042,97.9203 116,114.5C 109.757,120.051 102.924,120.884 95.5,117C 88.2911,109.574 87.6244,101.574 93.5,93C 95.4319,91.5415 97.4319,90.3748 99.5,89.5 Z"/></g>
</svg>
