<?xml version="1.0" standalone="no"?>
<!DOCTYPE svg PUBLIC "-//W3C//DTD SVG 20010904//EN"
 "http://www.w3.org/TR/2001/REC-SVG-20010904/DTD/svg10.dtd">
<svg version="1.0" xmlns="http://www.w3.org/2000/svg"
 width="700.000000pt" height="700.000000pt" viewBox="0 0 700.000000 700.000000"
 preserveAspectRatio="xMidYMid meet">
<metadata>
Created by potrace 1.14, written by Peter Selinger 2001-2017
</metadata>
<g transform="translate(0.000000,700.000000) scale(0.100000,-0.100000)"
fill="#000000" stroke="none">
<path d="M4020 6563 c-39 -7 -169 -63 -235 -102 -33 -19 -100 -76 -150 -125
-71 -72 -100 -110 -137 -181 -25 -49 -52 -109 -59 -133 -8 -26 -23 -51 -40
-63 -42 -30 -278 -140 -408 -190 -95 -37 -124 -53 -174 -99 -122 -112 -212
-261 -243 -403 -24 -110 -26 -332 -4 -437 35 -170 103 -308 221 -454 57 -70
73 -98 84 -151 13 -58 67 -193 115 -290 123 -246 295 -441 532 -601 101 -68
117 -90 112 -151 -3 -42 -28 -77 -115 -157 -141 -131 -303 -216 -493 -260
-122 -29 -184 -29 -287 -2 -128 33 -479 134 -734 211 -268 80 -354 98 -485 98
-255 -1 -449 -80 -647 -267 -39 -36 -66 -74 -93 -131 -65 -134 -118 -298 -135
-415 -3 -19 -8 -46 -11 -60 -10 -42 -12 -271 -3 -350 14 -120 52 -272 97 -385
58 -145 80 -181 149 -243 114 -102 125 -111 223 -185 52 -40 97 -75 98 -79 2
-5 8 -8 14 -8 6 0 25 -10 42 -23 86 -65 347 -205 478 -258 131 -52 368 -123
478 -143 121 -21 147 -25 219 -32 36 -3 82 -7 101 -9 50 -6 359 -6 395 -1 17
3 59 7 95 11 101 9 147 15 260 35 147 27 142 26 291 69 405 117 773 297 1079
527 119 89 159 124 285 249 129 129 216 232 322 382 104 147 248 418 325 613
66 165 148 423 168 528 10 48 16 60 38 69 66 28 315 183 393 245 24 20 101
141 149 238 172 342 189 690 53 1055 -46 124 -142 305 -161 305 -20 0 -257
234 -350 344 -83 99 -224 307 -298 443 -21 36 -54 71 -114 118 -210 167 -461
419 -631 634 -55 70 -72 84 -130 110 -85 38 -227 79 -331 96 -76 12 -294 17
-348 8z m160 -277 c0 -2 -8 -10 -17 -17 -16 -13 -17 -12 -4 4 13 16 21 21 21
13z m107 -22 c-3 -3 -12 -4 -19 -1 -8 3 -5 6 6 6 11 1 17 -2 13 -5z m40 -10
c-3 -3 -12 -4 -19 -1 -8 3 -5 6 6 6 11 1 17 -2 13 -5z m40 -10 c-3 -3 -12 -4
-19 -1 -8 3 -5 6 6 6 11 1 17 -2 13 -5z m83 -24 c18 -12 2 -12 -25 0 -13 6
-15 9 -5 9 8 0 22 -4 30 -9z m-330 -20 c-6 -11 -13 -20 -16 -20 -2 0 0 9 6 20
6 11 13 20 16 20 2 0 0 -9 -6 -20z m380 0 c8 -5 11 -10 5 -10 -5 0 -17 5 -25
10 -8 5 -10 10 -5 10 6 0 17 -5 25 -10z m63 -26 c9 -4 17 -10 17 -16 0 -9 -20
0 -50 22 -13 10 -13 11 0 6 8 -3 23 -9 33 -12z m-469 -31 c-4 -16 -10 -32 -15
-37 -5 -5 -4 6 1 25 6 18 10 35 10 36 0 2 2 3 5 3 3 0 2 -12 -1 -27z m545 -35
c20 -33 8 -27 -24 10 -22 26 -24 32 -9 22 12 -7 27 -22 33 -32z m-562 -85 c-2
-16 -4 -5 -4 22 0 28 2 40 4 28 2 -13 2 -35 0 -50z m563 8 c-15 -29 -78 -78
-144 -111 -32 -17 -60 -29 -62 -27 -2 2 25 18 61 36 36 18 84 52 108 76 49 50
51 52 37 26z m-480 -168 c15 -17 35 -35 45 -41 16 -9 17 -11 4 -12 -26 0 -111
109 -123 160 -4 14 6 2 21 -27 15 -28 39 -64 53 -80z m220 7 c-8 -5 -19 -10
-25 -10 -5 0 -3 5 5 10 8 5 20 10 25 10 6 0 3 -5 -5 -10z m-50 -20 c-8 -5 -19
-10 -25 -10 -5 0 -3 5 5 10 8 5 20 10 25 10 6 0 3 -5 -5 -10z m293 -97 c-7 -2
-19 -2 -25 0 -7 3 -2 5 12 5 14 0 19 -2 13 -5z m121 -1 c2 -4 -14 -6 -37 -4
-68 5 -76 10 -20 11 28 0 54 -2 57 -7z m79 -9 c-7 -2 -21 -2 -30 0 -10 3 -4 5
12 5 17 0 24 -2 18 -5z m293 -114 c3 -6 -5 -3 -20 6 -14 10 -26 19 -26 22 0 7
39 -17 46 -28z m39 -29 c10 -11 16 -20 13 -20 -3 0 -13 9 -23 20 -10 11 -16
20 -13 20 3 0 13 -9 23 -20z m-1830 -10 c-3 -5 -14 -10 -23 -9 -14 0 -13 2 3
9 27 11 27 11 20 0z m92 4 c-3 -3 -12 -4 -19 -1 -8 3 -5 6 6 6 11 1 17 -2 13
-5z m76 -1 c-7 -2 -19 -2 -25 0 -7 3 -2 5 12 5 14 0 19 -2 13 -5z m44 1 c-3
-3 -12 -4 -19 -1 -8 3 -5 6 6 6 11 1 17 -2 13 -5z m101 -11 c-10 -2 -28 -2
-40 0 -13 2 -5 4 17 4 22 1 32 -1 23 -4z m-368 -7 c0 -2 -7 -7 -16 -10 -8 -3
-12 -2 -9 4 6 10 25 14 25 6z m457 -2 c-3 -3 -12 -4 -19 -1 -8 3 -5 6 6 6 11
1 17 -2 13 -5z m-512 -24 c-3 -5 -12 -10 -18 -10 -7 0 -6 4 3 10 19 12 23 12
15 0z m694 -43 c-1 -20 -2 -20 -6 -2 -3 11 -13 25 -22 33 -14 11 -13 12 7 2
14 -7 22 -19 21 -33z m-743 20 c-86 -56 -111 -74 -149 -110 -23 -23 -55 -58
-70 -77 -20 -25 -19 -21 5 14 38 55 112 123 178 160 45 26 71 35 36 13z m2079
-17 l20 -25 -22 19 c-13 11 -23 24 -23 29 0 6 1 8 3 6 1 -2 11 -15 22 -29z
m103 -165 c-3 -3 -9 2 -12 12 -6 14 -5 15 5 6 7 -7 10 -15 7 -18z m-2438 -65
c-6 -11 -13 -20 -16 -20 -2 0 0 9 6 20 6 11 13 20 16 20 2 0 0 -9 -6 -20z
m-39 -77 c-12 -20 -14 -14 -5 12 4 9 9 14 11 11 3 -2 0 -13 -6 -23z m1313 -29
c3 -8 2 -12 -4 -9 -6 3 -10 10 -10 16 0 14 7 11 14 -7z m-1339 -49 c-8 -27
-14 -41 -14 -29 -1 21 19 88 24 82 2 -2 -3 -25 -10 -53z m24 -145 c0 -10 -3
-8 -9 5 -12 27 -12 43 0 25 5 -8 9 -22 9 -30z m2467 -10 c-36 -54 -42 -51 -8
4 15 24 29 42 31 40 2 -2 -8 -22 -23 -44z m-852 -29 c-16 -16 -31 -27 -34 -24
-5 5 46 53 57 53 4 0 -7 -13 -23 -29z m-1569 -81 c21 -52 48 -117 62 -145 13
-27 17 -41 9 -31 -23 29 -132 295 -114 276 3 -3 22 -48 43 -100z m2775 59 l25
-21 -33 18 -32 18 -63 -59 -62 -60 60 63 c33 34 64 62 70 62 5 0 21 -10 35
-21z m-1559 -56 c13 -16 12 -17 -3 -4 -17 13 -22 21 -14 21 2 0 10 -8 17 -17z
m1771 -135 c81 -92 187 -252 175 -264 -2 -2 -16 20 -31 49 -48 89 -110 168
-212 272 -67 67 -81 84 -42 51 31 -26 81 -75 110 -108z m-1427 122 c10 -11 16
-20 13 -20 -3 0 -13 9 -23 20 -10 11 -16 20 -13 20 3 0 13 -9 23 -20z m785 16
c0 -2 -12 -11 -27 -20 l-28 -17 24 20 c23 21 31 25 31 17z m-1085 -56 c10 -11
16 -20 13 -20 -3 0 -13 9 -23 20 -10 11 -16 20 -13 20 3 0 13 -9 23 -20z
m1325 -13 c0 -2 -10 -12 -22 -23 l-23 -19 19 23 c18 21 26 27 26 19z m-890
-17 c8 -5 11 -10 5 -10 -5 0 -17 5 -25 10 -8 5 -10 10 -5 10 6 0 17 -5 25 -10z
m-364 -42 l29 -33 -32 29 c-31 28 -38 36 -30 36 2 0 16 -15 33 -32z m1204 19
c0 -2 -10 -12 -22 -23 l-23 -19 19 23 c18 21 26 27 26 19z m-515 -17 c4 -6
-22 -9 -72 -8 l-78 2 70 6 c39 4 71 7 72 8 1 1 5 -2 8 -8z m78 3 c-7 -2 -19
-2 -25 0 -7 3 -2 5 12 5 14 0 19 -2 13 -5z m-1984 -119 c12 -19 16 -32 11 -29
-11 7 -43 65 -36 65 2 0 13 -16 25 -36z m94 -135 c72 -97 217 -242 262 -263
43 -21 46 -29 4 -14 -55 19 -257 233 -324 343 -26 43 -8 22 58 -66z m2987
-104 c0 -5 -5 -3 -10 5 -5 8 -10 20 -10 25 0 6 5 3 10 -5 5 -8 10 -19 10 -25z
m14 -31 c3 -8 2 -12 -4 -9 -6 3 -10 10 -10 16 0 14 7 11 14 -7z m-1124 -74
c-6 -11 -13 -20 -16 -20 -2 0 0 9 6 20 6 11 13 20 16 20 2 0 0 -9 -6 -20z
m1147 -32 c-3 -8 -6 -5 -6 6 -1 11 2 17 5 13 3 -3 4 -12 1 -19z m-1174 -13
c-3 -9 -8 -14 -10 -11 -3 3 -2 9 2 15 9 16 15 13 8 -4z m158 -56 c75 -72 164
-140 237 -181 28 -17 52 -32 52 -35 0 -9 -97 49 -162 98 -68 50 -209 179 -197
179 4 0 35 -27 70 -61z m-183 11 c-7 -11 -17 -20 -22 -20 -5 0 -1 9 9 20 10
11 20 20 22 20 2 0 -2 -9 -9 -20z m-1413 -28 c-3 -3 -11 0 -18 7 -9 10 -8 11
6 5 10 -3 15 -9 12 -12z m2631 -36 c1 -20 0 -36 -4 -36 -4 0 -8 18 -8 40 -1
49 7 45 12 -4z m-1284 -9 c-23 -23 -56 -51 -74 -61 l-33 -18 35 28 c19 16 49
43 65 60 17 17 34 32 40 33 5 0 -10 -18 -33 -42z m-1147 -15 c-3 -3 -11 0 -18
7 -9 10 -8 11 6 5 10 -3 15 -9 12 -12z m2435 -32 c0 -5 -5 -10 -11 -10 -5 0
-7 5 -4 10 3 6 8 10 11 10 2 0 4 -4 4 -10z m-2273 -6 c-3 -3 -12 -4 -19 -1 -8
3 -5 6 6 6 11 1 17 -2 13 -5z m128 -24 c13 -6 15 -9 5 -9 -8 0 -22 4 -30 9
-18 12 -2 12 25 0z m2145 -6 c0 -8 -5 -12 -10 -9 -6 4 -8 11 -5 16 9 14 15 11
15 -7z m-1401 2 c-10 -9 -69 -36 -69 -32 0 7 52 35 64 36 5 0 7 -2 5 -4z
m-644 -16 c3 -6 -1 -7 -9 -4 -18 7 -21 14 -7 14 6 0 13 -4 16 -10z m42 -6 c-3
-3 -12 -4 -19 -1 -8 3 -5 6 6 6 11 1 17 -2 13 -5z m2003 -14 c0 -5 -2 -10 -4
-10 -3 0 -8 5 -11 10 -3 6 -1 10 4 10 6 0 11 -4 11 -10z m-1873 -6 c-3 -3 -12
-4 -19 -1 -8 3 -5 6 6 6 11 1 17 -2 13 -5z m96 -11 c-7 -2 -19 -2 -25 0 -7 3
-2 5 12 5 14 0 19 -2 13 -5z m140 -10 c-13 -2 -35 -2 -50 0 -16 2 -5 4 22 4
28 0 40 -2 28 -4z m1632 -14 c-3 -12 -7 -24 -10 -27 -3 -3 -3 5 -1 19 6 30 5
29 10 29 3 0 3 -10 1 -21z m-710 -17 c-3 -3 -11 0 -18 7 -9 10 -8 11 6 5 10
-3 15 -9 12 -12z m-1941 -79 c-32 -47 -40 -55 -24 -23 12 24 40 60 46 60 2 0
-8 -17 -22 -37z m263 1 c-3 -3 -12 -4 -19 -1 -8 3 -5 6 6 6 11 1 17 -2 13 -5z
m47 -13 c4 -5 -3 -7 -14 -4 -23 6 -26 13 -6 13 8 0 17 -4 20 -9z m43 -7 c-3
-3 -12 -4 -19 -1 -8 3 -5 6 6 6 11 1 17 -2 13 -5z m40 -10 c-3 -3 -12 -4 -19
-1 -8 3 -5 6 6 6 11 1 17 -2 13 -5z m70 -20 c-3 -3 -12 -4 -19 -1 -8 3 -5 6 6
6 11 1 17 -2 13 -5z m-456 -51 c13 -16 12 -17 -3 -4 -17 13 -22 21 -14 21 2 0
10 -8 17 -17z m1056 11 c-3 -3 -12 -4 -19 -1 -8 3 -5 6 6 6 11 1 17 -2 13 -5z
m46 -1 c-7 -2 -19 -2 -25 0 -7 3 -2 5 12 5 14 0 19 -2 13 -5z m70 0 c-7 -2
-19 -2 -25 0 -7 3 -2 5 12 5 14 0 19 -2 13 -5z m50 0 c-7 -2 -19 -2 -25 0 -7
3 -2 5 12 5 14 0 19 -2 13 -5z m-1178 -41 c-3 -3 -11 0 -18 7 -9 10 -8 11 6 5
10 -3 15 -9 12 -12z m170 -90 c-4 -5 -136 66 -150 80 -5 5 27 -10 72 -34 45
-23 80 -44 78 -46z m2378 38 c-3 -12 -8 -19 -11 -16 -5 6 5 36 12 36 2 0 2 -9
-1 -20z m-32 -83 c-19 -31 -78 -90 -146 -147 -17 -13 9 14 57 61 52 52 90 97
94 115 4 16 9 23 12 16 2 -6 -5 -27 -17 -45z m-2221 -4 c3 -3 -6 -2 -19 2 -39
12 -91 35 -91 40 0 5 102 -34 110 -42z m50 -13 c18 -12 2 -12 -25 0 -13 6 -15
9 -5 9 8 0 22 -4 30 -9z m45 -20 c3 -6 -1 -7 -9 -4 -18 7 -21 14 -7 14 6 0 13
-4 16 -10z m112 -26 c-3 -3 -12 -4 -19 -1 -8 3 -5 6 6 6 11 1 17 -2 13 -5z
m50 -10 c-3 -3 -12 -4 -19 -1 -8 3 -5 6 6 6 11 1 17 -2 13 -5z m67 -13 c4 -5
-3 -7 -14 -4 -23 6 -26 13 -6 13 8 0 17 -4 20 -9z m59 -8 c-7 -2 -19 -2 -25 0
-7 3 -2 5 12 5 14 0 19 -2 13 -5z m62 -3 c3 -5 1 -10 -4 -10 -6 0 -11 5 -11
10 0 6 2 10 4 10 3 0 8 -4 11 -10z m108 -7 c-13 -2 -35 -2 -50 0 -16 2 -5 4
22 4 28 0 40 -2 28 -4z m1467 -84 c-32 -25 -101 -62 -106 -56 -3 2 9 10 25 17
16 6 44 23 62 36 40 29 54 32 19 3z m-150 -79 c-8 -5 -19 -10 -25 -10 -5 0 -3
5 5 10 8 5 20 10 25 10 6 0 3 -5 -5 -10z m-50 -14 c0 -2 -7 -7 -16 -10 -8 -3
-12 -2 -9 4 6 10 25 14 25 6z m-95 -26 c-3 -5 -25 -9 -48 -8 l-42 1 45 7 c25
4 46 8 48 8 2 1 0 -2 -3 -8z m-161 -8 c2 -4 -5 -9 -17 -9 -17 -2 -19 0 -7 7
18 12 18 12 24 2z m-1031 -9 c-23 -2 -64 -2 -90 0 -26 2 -7 3 42 3 50 0 71 -1
48 -3z m104 1 c-3 -3 -12 -4 -19 -1 -8 3 -5 6 6 6 11 1 17 -2 13 -5z m-467
-28 c0 -2 -7 -9 -15 -16 -13 -11 -14 -10 -9 4 5 14 24 23 24 12z m1337 -38
c-3 -8 -6 -5 -6 6 -1 11 2 17 5 13 3 -3 4 -12 1 -19z m-1390 -105 c-3 -10 -5
-4 -5 12 0 17 2 24 5 18 2 -7 2 -21 0 -30z m504 -10 c13 -16 12 -17 -3 -4 -17
13 -22 21 -14 21 2 0 10 -8 17 -17z m99 -70 c0 -7 -61 31 -73 46 -7 8 7 2 31
-14 23 -15 42 -30 42 -32z m-613 0 c-3 -10 -5 -2 -5 17 0 19 2 27 5 18 2 -10
2 -26 0 -35z m388 -33 l20 -25 -22 19 c-13 11 -23 24 -23 29 0 6 1 8 3 6 1 -2
11 -15 22 -29z m295 -6 c0 -2 -13 2 -30 11 -16 9 -30 18 -30 21 0 2 14 -2 30
-11 17 -9 30 -18 30 -21z m60 -24 c19 -11 31 -19 25 -19 -5 0 -26 8 -45 19
-19 11 -30 19 -25 19 6 0 26 -8 45 -19z m-743 -12 c-3 -8 -6 -5 -6 6 -1 11 2
17 5 13 3 -3 4 -12 1 -19z m858 -34 c24 -11 25 -13 5 -8 -14 4 -38 13 -55 20
-24 11 -25 13 -5 8 14 -4 39 -13 55 -20z m538 -24 c-3 -12 -8 -19 -11 -16 -5
6 5 36 12 36 2 0 2 -9 -1 -20z m-448 0 c25 -11 -1 -11 -35 0 -20 6 -21 8 -5 8
11 0 29 -3 40 -8z m-430 -20 c10 -11 16 -20 13 -20 -3 0 -13 9 -23 20 -10 11
-16 20 -13 20 3 0 13 -9 23 -20z m-461 -50 l31 -35 -37 34 c-21 19 -38 42 -37
50 0 14 1 14 6 1 3 -8 20 -31 37 -50z m953 54 c-3 -3 -12 -4 -19 -1 -8 3 -5 6
6 6 11 1 17 -2 13 -5z m97 -12 c2 -4 -11 -6 -30 -4 -19 2 -34 6 -34 8 0 8 59
4 64 -4z m-859 -185 c39 -24 103 -61 143 -81 39 -20 72 -38 72 -41 0 -3 -37
13 -82 36 -92 46 -244 147 -274 181 -10 12 1 6 26 -14 25 -20 77 -56 115 -81z
m-2828 57 c-3 -3 -12 -4 -19 -1 -8 3 -5 6 6 6 11 1 17 -2 13 -5z m101 -1 c-15
-2 -42 -2 -60 0 -18 2 -6 4 27 4 33 0 48 -2 33 -4z m2278 -14 c19 -22 19 -22
-3 -8 -13 8 -23 17 -23 21 0 12 6 9 26 -13z m-2518 -18 c-13 -17 -27 -30 -32
-30 -6 -1 3 13 19 29 37 38 43 39 13 1z m369 13 c-3 -3 -12 -4 -19 -1 -8 3 -5
6 6 6 11 1 17 -2 13 -5z m45 -21 c8 -10 18 -25 22 -33 4 -8 0 -6 -8 5 -9 11
-24 26 -33 33 -9 6 -12 12 -6 12 5 0 17 -8 25 -17z m1988 3 c0 -2 -8 -10 -17
-17 -16 -13 -17 -12 -4 4 13 16 21 21 21 13z m305 -141 c50 -48 76 -76 60 -63
-17 13 -62 53 -100 89 -39 37 -83 79 -100 94 -25 23 -24 22 10 -3 22 -17 81
-70 130 -117z m-360 95 c-10 -11 -21 -18 -23 -15 -3 3 3 12 14 20 27 20 30 18
9 -5z m-2441 -72 c-60 -87 -91 -125 -59 -73 28 48 106 155 111 155 2 0 -21
-37 -52 -82z m2367 3 c-21 -23 -52 -67 -69 -99 -17 -31 -32 -52 -32 -47 0 28
124 204 136 192 2 -2 -13 -23 -35 -46z m-1858 -16 c-3 -9 -8 -14 -10 -11 -3 3
-2 9 2 15 9 16 15 13 8 -4z m271 -37 c-27 -29 -59 -66 -71 -83 -12 -16 -23
-27 -23 -23 0 10 89 118 115 140 36 31 29 19 -21 -34z m184 45 c-10 -2 -26 -2
-35 0 -10 3 -2 5 17 5 19 0 27 -2 18 -5z m3129 -25 c-3 -7 -5 -2 -5 12 0 14 2
19 5 13 2 -7 2 -19 0 -25z m-3080 16 c-3 -3 -12 -4 -19 -1 -8 3 -5 6 6 6 11 1
17 -2 13 -5z m91 -24 c3 0 3 -2 0 -5 -5 -6 -78 22 -78 30 0 3 16 -2 36 -10 20
-8 39 -15 42 -15z m65 -39 c23 -16 60 -49 82 -73 l40 -43 -50 46 c-28 26 -68
58 -90 73 -22 14 -36 26 -32 26 5 0 27 -13 50 -29z m-1261 -60 c-9 -16 -18
-28 -21 -26 -4 5 27 55 34 55 2 0 -4 -13 -13 -29z m2006 20 c9 -5 4 -8 -16 -7
-17 1 -28 4 -25 9 6 9 25 9 41 -2z m-63 -11 c-3 -5 -12 -10 -18 -10 -7 0 -6 4
3 10 19 12 23 12 15 0z m110 -10 c3 -6 -1 -7 -9 -4 -18 7 -21 14 -7 14 6 0 13
-4 16 -10z m-166 -14 c-2 -2 -15 -9 -29 -15 -24 -11 -24 -11 -6 3 16 13 49 24
35 12z m206 -16 c10 -11 16 -20 13 -20 -3 0 -13 9 -23 20 -10 11 -16 20 -13
20 3 0 13 -9 23 -20z m2058 0 c-3 -12 -8 -19 -11 -16 -5 6 5 36 12 36 2 0 2
-9 -1 -20z m-2323 -14 c0 -2 -7 -7 -16 -10 -8 -3 -12 -2 -9 4 6 10 25 14 25 6z
m-1080 -36 c-6 -11 -13 -20 -16 -20 -2 0 0 9 6 20 6 11 13 20 16 20 2 0 0 -9
-6 -20z m1385 -10 c8 -16 15 -37 14 -47 0 -12 -3 -9 -8 8 -5 14 -14 35 -20 47
-6 12 -9 22 -7 22 3 0 12 -13 21 -30z m252 -22 c-3 -8 -6 -5 -6 6 -1 11 2 17
5 13 3 -3 4 -12 1 -19z m1728 -33 c-22 -60 -29 -53 -7 7 9 26 18 45 21 43 2
-3 -4 -25 -14 -50z m-4172 30 c-3 -9 -8 -14 -10 -11 -3 3 -2 9 2 15 9 16 15
13 8 -4z m1755 -34 c-34 -50 -49 -61 -28 -19 12 22 50 68 57 68 2 0 -12 -22
-29 -49z m-975 19 c-3 -11 -10 -23 -16 -27 -5 -3 -8 -2 -5 3 3 5 8 17 11 27 9
24 16 22 10 -3z m707 0 c6 -11 8 -20 6 -20 -3 0 -10 9 -16 20 -6 11 -8 20 -6
20 3 0 10 -9 16 -20z m974 -26 c3 -8 2 -12 -4 -9 -6 3 -10 10 -10 16 0 14 7
11 14 -7z m-1723 -75 c-11 -30 -20 -46 -20 -37 -1 20 29 101 35 95 2 -2 -5
-28 -15 -58z m750 38 c-10 -9 -11 -8 -5 6 3 10 9 15 12 12 3 -3 0 -11 -7 -18z
m2650 -34 c-12 -20 -14 -14 -5 12 4 9 9 14 11 11 3 -2 0 -13 -6 -23z m-4190
-26 c-10 -9 -11 -8 -5 6 3 10 9 15 12 12 3 -3 0 -11 -7 -18z m2537 -2 c-3 -3
-9 2 -12 12 -6 14 -5 15 5 6 7 -7 10 -15 7 -18z m1642 -3 c0 -5 -7 -17 -15
-28 -14 -18 -14 -17 -4 9 12 27 19 34 19 19z m-2439 -29 c-12 -20 -14 -14 -5
12 4 9 9 14 11 11 3 -2 0 -13 -6 -23z m838 -63 c17 -41 49 -106 71 -144 22
-38 34 -63 25 -56 -16 13 -119 219 -131 260 -11 42 2 19 35 -60z m-2592 28
c-3 -8 -6 -5 -6 6 -1 11 2 17 5 13 3 -3 4 -12 1 -19z m1734 -19 c-5 -13 -10
-19 -10 -12 -1 15 10 45 15 40 3 -2 0 -15 -5 -28z m2405 -28 c-15 -28 -28 -51
-31 -51 -3 0 7 25 22 55 15 30 29 53 31 51 2 -2 -8 -27 -22 -55z m-3359 27
c-3 -8 -6 -5 -6 6 -1 11 2 17 5 13 3 -3 4 -12 1 -19z m-790 -30 c-3 -7 -5 -2
-5 12 0 14 2 19 5 13 2 -7 2 -19 0 -25z m1722 -37 c-6 -18 -13 -30 -15 -28 -2
2 1 18 7 36 6 18 13 30 15 28 2 -2 -1 -18 -7 -36z m-1724 -13 c-4 -18 -8 -35
-11 -38 -3 -2 -3 9 0 25 2 17 5 33 5 38 1 4 3 7 6 7 3 0 3 -14 0 -32z m782 0
c-3 -8 -6 -5 -6 6 -1 11 2 17 5 13 3 -3 4 -12 1 -19z m3324 -25 c-5 -10 -17
-27 -26 -38 -16 -19 -17 -19 -3 5 26 46 29 50 34 50 3 0 0 -8 -5 -17z m-3321
-13 c0 -5 -5 -10 -11 -10 -5 0 -7 5 -4 10 3 6 8 10 11 10 2 0 4 -4 4 -10z
m914 -24 c-3 -15 -8 -25 -11 -23 -2 3 -1 17 3 31 3 15 8 25 11 23 2 -3 1 -17
-3 -31z m-1700 -46 c-6 -6 -10 -3 -10 10 0 13 4 16 10 10 7 -7 7 -13 0 -20z
m779 17 c3 -8 1 -20 -4 -28 -6 -10 -9 -7 -9 14 0 29 5 35 13 14z m3261 -34
c-101 -137 -262 -295 -376 -372 -35 -23 -50 -32 -34 -19 145 114 186 151 269
238 53 56 109 121 124 145 15 24 32 44 37 45 4 0 -4 -17 -20 -37z m-2363 -6
c-10 -9 -11 -8 -5 6 3 10 9 15 12 12 3 -3 0 -11 -7 -18z m-1674 -29 c-3 -7 -5
-2 -5 12 0 14 2 19 5 13 2 -7 2 -19 0 -25z m776 -8 c-3 -11 -7 -20 -9 -20 -2
0 -4 9 -4 20 0 11 4 20 9 20 5 0 7 -9 4 -20z m2084 -137 c72 -71 150 -126 267
-189 88 -47 98 -60 13 -18 -150 76 -334 227 -406 334 -15 22 -8 17 20 -15 23
-27 71 -78 106 -112z m-1200 115 c-3 -8 -6 -5 -6 6 -1 11 2 17 5 13 3 -3 4
-12 1 -19z m-1650 -30 c-3 -7 -5 -2 -5 12 0 14 2 19 5 13 2 -7 2 -19 0 -25z
m1640 -10 c-3 -8 -6 -5 -6 6 -1 11 2 17 5 13 3 -3 4 -12 1 -19z m-870 -50 c-2
-13 -4 -5 -4 17 -1 22 1 32 4 23 2 -10 2 -28 0 -40z m865 3 c2 -17 1 -28 -4
-25 -8 5 -12 54 -4 54 2 0 6 -13 8 -29z m-1608 -7 c3 -8 2 -12 -4 -9 -6 3 -10
10 -10 16 0 14 7 11 14 -7z m2491 -24 l20 -25 -22 19 c-13 11 -23 24 -23 29 0
6 1 8 3 6 1 -2 11 -15 22 -29z m-2475 -20 c6 -11 8 -20 6 -20 -3 0 -10 9 -16
20 -6 11 -8 20 -6 20 3 0 10 -9 16 -20z m737 -27 c-3 -10 -5 -2 -5 17 0 19 2
27 5 18 2 -10 2 -26 0 -35z m872 -3 c0 -10 -3 -8 -9 5 -12 27 -12 43 0 25 5
-8 9 -22 9 -30z m25 -70 c5 -17 4 -20 -2 -10 -5 8 -13 26 -16 40 -5 17 -4 20
2 10 5 -8 13 -26 16 -40z m-1563 -27 c24 -38 95 -120 159 -183 65 -65 88 -92
53 -62 -81 69 -164 160 -211 230 -47 70 -54 82 -49 82 3 0 24 -30 48 -67z
m698 -18 c0 -5 -4 -3 -9 5 -5 8 -9 22 -9 30 0 16 17 -16 18 -35z m900 -50 c0
-5 -6 1 -14 15 -8 14 -14 30 -14 35 0 6 6 -1 14 -15 8 -14 14 -29 14 -35z m35
-72 c14 -29 24 -53 21 -53 -5 0 -55 95 -55 106 0 12 6 2 34 -53z m1497 42 c19
-8 27 -14 19 -14 -14 0 -72 28 -59 29 4 0 22 -7 40 -15z m-2393 -30 c-3 -3 -9
2 -12 12 -6 14 -5 15 5 6 7 -7 10 -15 7 -18z m2462 5 c8 -5 11 -10 5 -10 -5 0
-17 5 -25 10 -8 5 -10 10 -5 10 6 0 17 -5 25 -10z m210 -4 c0 -2 -16 -14 -36
-26 -29 -16 -39 -18 -48 -9 -6 7 -6 9 -1 6 6 -3 26 3 45 14 39 20 40 21 40 15z
m-150 -16 c18 -12 2 -12 -25 0 -13 6 -15 9 -5 9 8 0 22 -4 30 -9z m-1865 -50
l20 -25 -22 19 c-13 11 -23 24 -23 29 0 6 1 8 3 6 1 -2 11 -15 22 -29z m-532
-145 c17 -22 70 -80 117 -130 47 -49 63 -69 35 -45 -94 85 -255 289 -255 324
0 6 16 -16 36 -49 20 -33 50 -78 67 -100z m960 -75 c34 -36 44 -49 23 -30 -22
19 -50 46 -63 60 -29 32 -123 166 -123 176 0 4 23 -26 51 -67 28 -41 78 -103
112 -139z m-1234 110 c0 -8 -6 0 -14 19 -8 18 -15 36 -15 40 1 13 29 -45 29
-59z m862 33 c13 -16 12 -17 -3 -4 -10 7 -18 15 -18 17 0 8 8 3 21 -13z m1489
-24 c6 -11 9 -28 7 -37 -3 -12 -5 -10 -6 6 0 13 -13 35 -28 49 -23 21 -24 24
-6 14 13 -6 27 -21 33 -32z m-2639 -16 c13 -16 12 -17 -3 -4 -17 13 -22 21
-14 21 2 0 10 -8 17 -17z m1199 -23 c17 -22 29 -40 27 -40 -3 0 -20 18 -37 40
-17 22 -29 40 -27 40 3 0 20 -18 37 -40z m-1090 -56 c0 -3 -20 9 -45 26 -25
17 -45 33 -45 36 0 3 20 -9 45 -26 25 -17 45 -33 45 -36z m163 16 c-17 -30
-61 -66 -69 -57 -2 2 7 9 19 16 13 7 31 26 41 42 9 16 19 29 22 29 3 0 -3 -14
-13 -30z m2378 -18 c-21 -73 -76 -130 -141 -146 -15 -4 -9 1 14 14 70 36 114
89 118 144 1 13 5 23 9 20 4 -2 4 -17 0 -32z m-1385 -29 c15 -20 23 -33 16
-29 -13 8 -56 66 -49 66 3 0 17 -17 33 -37z m-1085 -10 c13 -17 13 -17 -6 -3
-11 8 -22 16 -24 17 -2 2 0 3 6 3 6 0 17 -8 24 -17z m1130 -50 c13 -16 12 -17
-3 -4 -10 7 -18 15 -18 17 0 8 8 3 21 -13z m381 -58 c24 -14 38 -25 32 -25
-13 0 -134 77 -134 85 0 4 13 -3 29 -14 16 -12 49 -32 73 -46z m-318 -24 c25
-33 46 -62 46 -65 0 -3 -10 -11 -22 -17 -21 -11 -22 -11 -10 4 16 18 7 39 -40
100 -16 20 -27 37 -24 37 2 0 25 -27 50 -59z m-499 -74 c6 -5 1 -5 -10 1 -11
6 -38 27 -60 47 l-40 37 50 -38 c28 -21 55 -42 60 -47z m930 53 c13 -6 15 -9
5 -9 -8 0 -22 4 -30 9 -18 12 -2 12 25 0z m572 4 c-3 -3 -12 -4 -19 -1 -8 3
-5 6 6 6 11 1 17 -2 13 -5z m-522 -24 c3 -6 -1 -7 -9 -4 -18 7 -21 14 -7 14 6
0 13 -4 16 -10z m42 -6 c-3 -3 -12 -4 -19 -1 -8 3 -5 6 6 6 11 1 17 -2 13 -5z
m288 -3 c-6 -5 -30 -10 -55 -11 -78 -3 -88 3 -15 10 39 4 72 7 75 8 2 1 0 -2
-5 -7z m48 2 c-7 -2 -19 -2 -25 0 -7 3 -2 5 12 5 14 0 19 -2 13 -5z m-193 -11
c0 -4 -19 -6 -42 -4 -71 5 -77 10 -15 11 31 0 57 -2 57 -7z m-1064 -70 c-6 -5
-75 28 -82 39 -3 5 15 -1 40 -13 25 -12 44 -24 42 -26z m299 3 c-22 -8 -51
-13 -65 -13 -14 0 -3 5 25 13 65 17 91 17 40 0z m-171 -13 c3 -5 -1 -9 -9 -9
-8 0 -12 4 -9 9 3 4 7 8 9 8 2 0 6 -4 9 -8z m72 1 c-8 -8 -57 -12 -52 -5 2 4
16 8 31 8 14 1 24 0 21 -3z"/>
</g>
</svg>
